<svg width="1440" height="701" viewBox="0 0 1440 701" fill="none" xmlns="http://www.w3.org/2000/svg">
<path opacity="0.3" d="M840.6 417.741L946.125 316.682C968.24 295.503 997.681 283.679 1028.31 283.679H1200.43C1241.86 283.679 1280.29 262.105 1301.86 226.744L1440 0.260376M840.6 282.78L946.125 383.839C968.24 405.018 997.681 416.841 1028.31 416.841H1200.43C1241.86 416.841 1280.29 438.416 1301.86 473.776L1440 700.26M599.4 417.741L493.875 316.682C471.76 295.503 442.318 283.679 411.694 283.679H239.572C198.144 283.679 159.709 262.105 138.141 226.744L0 0.260376M599.4 282.78L493.875 383.839C471.76 405.018 442.318 416.841 411.694 416.841H239.572C198.144 416.841 159.709 438.416 138.141 473.776L3.06067e-05 700.26" stroke="url(#paint0_radial_2003_489)"/>
<defs>
<radialGradient id="paint0_radial_2003_489" cx="0" cy="0" r="1" gradientTransform="matrix(-720 -2.28371e-05 -0.0840797 -501.506 720 350.26)" gradientUnits="userSpaceOnUse">
<stop stop-color="white" stop-opacity="0"/>
<stop offset="1" stop-color="#0A091F"/>
</radialGradient>
</defs>
</svg>
