<svg width="357" height="44" viewBox="0 0 357 44" fill="none" xmlns="http://www.w3.org/2000/svg">
<path d="M113.56 43.2543C110.38 43.2543 107.594 42.6048 105.201 41.3056C102.842 39.9723 101.013 38.109 99.7134 35.7158C98.4142 33.3227 97.7646 30.5021 97.7646 27.2542C97.7646 24.0064 98.4142 21.1858 99.7134 18.7927C101.013 16.3995 102.842 14.5533 105.201 13.2542C107.594 11.9208 110.38 11.2542 113.56 11.2542C116.842 11.2542 119.645 11.9037 121.97 13.2029C124.329 14.502 126.141 16.3482 127.406 18.7414C128.705 21.1345 129.355 23.9722 129.355 27.2542C129.355 30.5021 128.705 33.3397 127.406 35.7671C126.141 38.1603 124.329 40.0065 121.97 41.3056C119.611 42.6048 116.807 43.2543 113.56 43.2543ZM113.56 38.2287C116.739 38.2287 119.201 37.2714 120.944 35.3569C122.722 33.4081 123.611 30.7073 123.611 27.2542C123.611 23.767 122.722 21.0662 120.944 19.1516C119.201 17.2371 116.739 16.2798 113.56 16.2798C110.414 16.2798 107.953 17.2542 106.175 19.2029C104.397 21.1175 103.508 23.8012 103.508 27.2542C103.508 30.7073 104.397 33.4081 106.175 35.3569C107.953 37.2714 110.414 38.2287 113.56 38.2287Z" fill="#0A091F"/>
<path d="M76.7884 43.3054C72.5833 43.3054 68.908 42.4336 65.7627 40.69C62.6516 38.9122 60.2413 36.4165 58.5319 33.2028C56.8225 29.9891 55.9678 26.2113 55.9678 21.8694C55.9678 17.5275 56.8225 13.7667 58.5319 10.5872C60.2413 7.37355 62.6516 4.8949 65.7627 3.1513C68.908 1.37351 72.5833 0.484619 76.7884 0.484619C80.0021 0.484619 82.8397 1.01454 85.3013 2.07437C87.797 3.10002 89.8483 4.6214 91.4552 6.6385C93.062 8.62142 94.156 11.0317 94.7372 13.8693H88.7885C88.1731 11.2368 86.8227 9.20262 84.7372 7.76671C82.6859 6.33081 80.0363 5.61285 76.7884 5.61285C72.1046 5.61285 68.4294 7.06585 65.7627 9.97185C63.096 12.8779 61.7627 16.8437 61.7627 21.8694C61.7627 26.9292 63.096 30.9121 65.7627 33.8181C68.4294 36.69 72.1046 38.1259 76.7884 38.1259C80.0363 38.1259 82.6859 37.425 84.7372 36.0233C86.8227 34.5874 88.1731 32.5532 88.7885 29.9207H94.7372C94.156 32.7241 93.062 35.1344 91.4552 37.1515C89.8483 39.1344 87.797 40.6558 85.3013 41.7156C82.8397 42.7755 80.0021 43.3054 76.7884 43.3054Z" fill="#0A091F"/>
<path d="M180.368 43.2543C176.094 43.2543 172.726 42.3654 170.265 40.5877C167.803 38.8099 166.453 36.3312 166.214 33.1517H171.906C172.145 35.0321 172.966 36.4167 174.368 37.3056C175.769 38.1945 177.838 38.6389 180.573 38.6389C185.359 38.6389 187.752 37.1346 187.752 34.1261C187.752 32.8953 187.376 31.9551 186.624 31.3055C185.906 30.6218 184.675 30.1261 182.932 29.8184L176.214 28.5876C170.504 27.5278 167.65 24.8098 167.65 20.4337C167.65 17.5961 168.726 15.3567 170.88 13.7157C173.034 12.0747 175.974 11.2542 179.701 11.2542C183.564 11.2542 186.624 12.0918 188.88 13.767C191.171 15.4422 192.47 17.8012 192.778 20.8439H187.188C186.846 19.1345 186.043 17.8696 184.778 17.0491C183.547 16.2285 181.803 15.8183 179.547 15.8183C177.462 15.8183 175.838 16.1773 174.675 16.8952C173.547 17.6132 172.983 18.6559 172.983 20.0234C172.983 21.0833 173.342 21.9209 174.06 22.5363C174.812 23.1175 176.009 23.5619 177.65 23.8696L184.368 25.1517C187.376 25.6987 189.581 26.673 190.983 28.0748C192.385 29.4765 193.086 31.3568 193.086 33.7158C193.086 36.7244 191.992 39.0663 189.804 40.7415C187.615 42.4167 184.47 43.2543 180.368 43.2543Z" fill="#0A091F"/>
<path d="M211.977 43.2543C208.764 43.2543 205.977 42.6048 203.618 41.3056C201.259 39.9723 199.43 38.0919 198.131 35.6645C196.866 33.2372 196.234 30.3996 196.234 27.1517C196.234 23.9038 196.866 21.1004 198.131 18.7414C199.43 16.3482 201.242 14.502 203.567 13.2029C205.892 11.9037 208.61 11.2542 211.721 11.2542C214.695 11.2542 217.259 11.8524 219.413 13.049C221.601 14.2456 223.294 15.9379 224.49 18.126C225.687 20.314 226.285 22.9123 226.285 25.9209V28.2286H201.772C201.943 31.4423 202.917 33.9551 204.695 35.7671C206.507 37.5449 208.917 38.4338 211.926 38.4338C214.012 38.4338 215.772 38.0064 217.208 37.1517C218.644 36.2628 219.635 34.9637 220.182 33.2543H226.029C225.277 36.4338 223.653 38.8953 221.157 40.6389C218.695 42.3825 215.635 43.2543 211.977 43.2543ZM201.977 24.0235H220.747C220.473 21.4935 219.533 19.5277 217.926 18.126C216.353 16.7243 214.268 16.0234 211.67 16.0234C209.106 16.0234 206.969 16.7243 205.259 18.126C203.55 19.5277 202.456 21.4935 201.977 24.0235Z" fill="#0A091F"/>
<path d="M273.508 42.6389C271.867 42.6389 270.585 42.2286 269.661 41.4081C268.773 40.5534 268.328 39.2884 268.328 37.6132V16.2797H262.584V11.8694H268.379V3.87415H274.02V11.8694H282.072V16.2797H274.072V38.126H282.892V42.6389H273.508Z" fill="#0A091F"/>
<path d="M325.623 42.641V16.9595H332.891V42.641H325.623Z" fill="#0A091F"/>
<path d="M325.138 11.1448V3.87646H332.891V11.1448H325.138Z" fill="#0A091F"/>
<path d="M347.716 42.6389C345.826 42.6389 344.352 42.1584 343.295 41.1974C342.27 40.2363 341.757 38.7788 341.757 36.8247L341.757 17.2011H336.664V11.6271H341.805L341.87 3.87415L348.821 3.87415L348.821 11.6271H356.635V17.2011H348.917L348.917 37.0169H356.461V42.6389H347.716Z" fill="#0A091F"/>
<path d="M137.226 16.1942H139.355C140.431 14.4591 141.906 13.1404 143.78 12.2382C145.654 11.3012 147.858 10.8329 150.392 10.8329C154.417 10.8329 157.593 11.9951 159.918 14.3202C162.243 16.6106 163.405 19.6821 163.405 23.5341V42.6385H157.575V24.5233C157.575 21.7126 156.812 19.5785 155.285 18.121C153.793 16.6634 151.589 15.9345 148.674 15.9344C145.793 15.9344 143.589 16.6634 142.062 18.121C140.536 19.5785 139.772 21.7125 139.772 24.5233V42.6385H133.942V17.5536H129.848V10.1757H137.226V16.1942Z" fill="#0A091F"/>
<path d="M235.495 16.5874H237.109C238.169 14.8781 239.622 13.5788 241.468 12.6899C243.314 11.7669 245.485 11.3052 247.98 11.3052C251.946 11.3052 255.075 12.4503 257.365 14.7407C259.656 16.9971 260.802 20.0231 260.802 23.8179V42.6392H255.058V24.7925C255.058 22.0234 254.306 19.9208 252.802 18.4849C251.332 17.049 249.16 16.3306 246.288 16.3306C243.451 16.3306 241.28 17.049 239.775 18.4849C238.271 19.9208 237.52 22.0233 237.52 24.7925V42.6392H231.775V17.9263H227.742V10.1733H235.495V16.5874Z" fill="#0A091F"/>
<path d="M15.8743 42.3748C15.5171 42.7298 14.938 42.7298 14.5808 42.3748L4.09591 31.9558C-1.3653 26.5289 -1.3653 17.7301 4.09591 12.3032C4.34992 12.0508 4.76175 12.0508 5.01576 12.3032L24.9291 32.0915C25.2863 32.4464 25.2863 33.0219 24.9291 33.3769L15.8743 42.3748Z" fill="url(#paint0_linear_2003_488)"/>
<path d="M17.145 21.0162C16.8951 20.7595 16.898 20.3465 17.1516 20.0935L37.0333 0.26404C37.39 -0.0916574 37.964 -0.0874423 38.3155 0.273454L47.2257 9.42191C47.5772 9.7828 47.573 10.3637 47.2164 10.7194L36.7482 21.1601C31.2956 26.5983 22.519 26.5339 17.145 21.0162Z" fill="url(#paint1_linear_2003_488)"/>
<path d="M305.943 3.71655C308.281 3.71657 310.3 4.1327 311.997 4.96558C313.727 5.76642 315.088 6.92001 316.081 8.42554C317.074 9.89907 317.571 11.629 317.571 13.615C317.571 15.633 316.748 17.5601 315.932 18.8953C314.516 21.2115 312.786 21.6871 312.843 21.6882L314.472 21.8806C315.913 22.201 317.227 22.7931 318.412 23.658C319.63 24.5229 320.59 25.6122 321.295 26.9255C322.032 28.239 322.401 29.7927 322.401 31.5867C322.401 33.7971 321.856 35.7353 320.767 37.4011C319.71 39.0348 318.22 40.3159 316.298 41.2449C314.408 42.1738 312.214 42.6384 309.715 42.6384H289.197V10.1755H296.548V19.5261H304.934C306.631 19.526 307.929 19.1248 308.825 18.324C309.754 17.4911 310.219 16.3217 310.219 14.8162C310.219 13.2467 309.754 12.0613 308.825 11.2605C307.929 10.4598 306.631 10.0594 304.934 10.0593H296.549V3.71655H305.943ZM296.548 36.2957H308.369C310.516 36.2956 312.165 35.8311 313.319 34.9021C314.472 33.9411 315.048 32.5639 315.048 30.7703C315.048 29.0084 314.472 27.678 313.319 26.781C312.165 25.8521 310.531 25.3884 308.417 25.3884H296.548V36.2957Z" fill="#0A091F"/>
<defs>
<linearGradient id="paint0_linear_2003_488" x1="12.5985" y1="12.1139" x2="12.5985" y2="42.641" gradientUnits="userSpaceOnUse">
<stop stop-color="#0777E6"/>
<stop offset="1" stop-color="#69B4FF"/>
</linearGradient>
<linearGradient id="paint1_linear_2003_488" x1="32.223" y1="0" x2="32.223" y2="25.197" gradientUnits="userSpaceOnUse">
<stop stop-color="#0777E6"/>
<stop offset="1" stop-color="#69B4FF"/>
</linearGradient>
</defs>
</svg>
