<svg width="14" height="20" viewBox="0 0 14 20" fill="none" xmlns="http://www.w3.org/2000/svg">
<path d="M8.00001 5.101L8.01001 5.102C8.96745 5.29819 9.84596 5.77188 10.536 6.464C11.2275 7.15542 11.7014 8.03427 11.899 8.992C12.0339 9.65727 12.0335 10.3429 11.898 11.008C11.7018 11.966 11.2278 12.8449 10.535 13.535L11.949 14.949C12.9169 13.9805 13.5802 12.7499 13.857 11.409C14.0487 10.4791 14.0487 9.51989 13.857 8.59C13.5835 7.24838 12.9201 6.0173 11.95 5.051C11.3131 4.41182 10.5581 3.90239 9.72701 3.551C9.30332 3.37163 8.86281 3.23495 8.41201 3.143C8.27501 3.115 8.13701 3.1 8.00001 3.08V0L4.00001 4L8.00001 8V5.101ZM0.550006 12.724C0.724006 13.136 0.942006 13.536 1.19601 13.914C1.44501 14.284 1.73301 14.632 2.05001 14.948C2.68819 15.5864 3.44325 16.096 4.27401 16.449C4.69901 16.629 5.14201 16.766 5.58901 16.857C5.75601 16.891 5.92701 16.913 6.09701 16.935V19.879L10.097 15.879L6.09701 11.879V14.909C6.06201 14.903 6.02501 14.906 5.99001 14.898C5.03256 14.7018 4.15405 14.2281 3.46401 13.536C2.99907 13.072 2.63023 12.5209 2.3786 11.9142C2.12697 11.3075 1.99749 10.6571 1.99758 10.0003C1.99768 9.34347 2.12734 8.69312 2.37914 8.08647C2.63094 7.47983 2.99994 6.92882 3.46501 6.465L2.05101 5.05C1.4125 5.68786 0.903176 6.44302 0.551006 7.274C0.186183 8.13646 -0.00120921 9.06356 5.87135e-06 10C-0.000631749 10.9356 0.18639 11.8619 0.550006 12.724Z" fill="#262E84"/>
</svg>
