<svg width="16" height="16" viewBox="0 0 16 16" fill="none" xmlns="http://www.w3.org/2000/svg">
<rect width="16" height="16" rx="3" fill="#DEE8F4"/>
<path d="M9.7333 8.46752V10.1825C9.7333 11.6117 9.16163 12.1834 7.73245 12.1834H6.01745C4.58827 12.1834 4.0166 11.6117 4.0166 10.1825V8.46752C4.0166 7.03834 4.58827 6.46667 6.01745 6.46667H7.73245C9.16163 6.46667 9.7333 7.03834 9.7333 8.46752Z" stroke="#292D32" stroke-width="1.5" stroke-linecap="round" stroke-linejoin="round"/>
<path d="M12.1835 6.01751V7.73251C12.1835 9.16169 11.6118 9.73336 10.1826 9.73336H9.73348V8.46752C9.73348 7.03834 9.16181 6.46667 7.73264 6.46667H6.4668V6.01751C6.4668 4.58833 7.03847 4.01666 8.46764 4.01666H10.1826C11.6118 4.01666 12.1835 4.58833 12.1835 6.01751Z" stroke="#292D32" stroke-width="1.5" stroke-linecap="round" stroke-linejoin="round"/>
</svg>
