<svg width="16" height="16" viewBox="0 0 16 16" fill="none" xmlns="http://www.w3.org/2000/svg">
<g opacity="0.5">
<rect width="16" height="16" rx="3" fill="#DEE8F4"/>
<path d="M8.9665 4.66675H7.03317C6.80651 4.66675 6.4865 4.80008 6.3265 4.96008L4.95984 6.32675C4.79984 6.48675 4.6665 6.80675 4.6665 7.03342V8.96675C4.6665 9.19341 4.79984 9.51341 4.95984 9.67341L6.3265 11.0401C6.4865 11.2001 6.80651 11.3334 7.03317 11.3334H8.9665C9.19317 11.3334 9.51317 11.2001 9.67317 11.0401L11.0398 9.67341C11.1998 9.51341 11.3332 9.19341 11.3332 8.96675V7.03342C11.3332 6.80675 11.1998 6.48675 11.0398 6.32675L9.67317 4.96008C9.51317 4.80008 9.19317 4.66675 8.9665 4.66675Z" stroke="#292D32" stroke-linecap="round" stroke-linejoin="round"/>
<path d="M5.64648 10.3601L10.3598 5.64673" stroke="#292D32" stroke-linecap="round" stroke-linejoin="round"/>
</g>
</svg>
