<svg width="16" height="16" viewBox="0 0 16 16" fill="none" xmlns="http://www.w3.org/2000/svg">
<rect width="16" height="16" rx="3" fill="#DEE8F4"/>
<path d="M11 5.99333C9.89 5.88333 8.77333 5.82666 7.66 5.82666C7 5.82666 6.34 5.85999 5.68 5.92666L5 5.99333" stroke="#292D32" stroke-width="0.8" stroke-linecap="round" stroke-linejoin="round"/>
<path d="M6.83301 5.6565L6.90634 5.21984C6.95967 4.90317 6.99967 4.6665 7.56301 4.6665H8.43634C8.99967 4.6665 9.04301 4.9165 9.09301 5.22317L9.16634 5.6565" stroke="#292D32" stroke-linecap="round" stroke-linejoin="round"/>
<path d="M10.283 7.04663L10.0663 10.4033C10.0296 10.9266 9.99964 11.3333 9.06964 11.3333H6.92964C5.99964 11.3333 5.96964 10.9266 5.93298 10.4033L5.71631 7.04663" stroke="#292D32" stroke-linecap="round" stroke-linejoin="round"/>
<path d="M7.44287 9.5H8.55287" stroke="#292D32" stroke-linecap="round" stroke-linejoin="round"/>
<path d="M7.16699 8.1665H8.83366" stroke="#292D32" stroke-linecap="round" stroke-linejoin="round"/>
</svg>
